<?xml version="1.0" encoding="UTF-8"?>
<svg preserveAspectRatio="xMinYMin meet" version="1.1" viewBox="0 0 3851.4 540.6" xmlns="http://www.w3.org/2000/svg">
 <g fill="#9C9C9C">
  <path d="m3635.1 3.912c1e-3 0 23.497 0 33.312 7.188 0 0 9.864 7.188 17.448 29.147l164.32 479.44s2.28 6.048 0.396 11.005c0 0-1.883 4.907-10.261 4.907h-69.646c1e-3 0-8.327 0-13.235-1.883 0 0-4.957-1.884-7.981-10.212l-33.311-103.75h-192.38l-33.311 102.96s-2.28 6.841-6.444 9.864c0 0-4.164 3.024-13.235 3.024h-69.696c1e-3 0-8.327 0-10.607-4.907 0 0-2.231-4.957 0-11.005l163.58-479.44s3.817-11.351 7.585-18.142c0 0 3.817-6.841 9.468-10.608 0 0 5.7-3.817 13.284-5.701 0 0 7.535-1.884 18.143-1.884h32.567zm-14.375 102.26h-3.767l-31.081 105.19-39.358 129.38h145.39l-39.359-127.15-31.824-107.42z"/>
  <path d="m2071.2 5.35s10.608 0 14.375 2.677c0 0 3.768 2.627 3.768 13.235l-1e-3 196.4h235.56v-196.4s0-9.865 4.214-12.888c0 0 4.163-3.024 13.235-3.024h57.699s10.608 0 14.028 2.677c0 0 3.421 2.627 3.421 13.235v498.43s0 10.608-3.421 13.285c0 0-3.42 2.627-14.028 2.627h-57.7c1e-3 0-9.071 0-13.234-3.024 0 0-4.214-3.023-4.214-12.888v-222.57h-235.56v222.57c1e-3 0 1e-3 10.608-3.767 13.285 0 0-3.767 2.627-14.375 2.627h-57.502c1e-3 0-8.327 0-12.838-3.024 0 0-4.56-3.023-4.56-12.888l-1e-3 -498.43c1e-3 0 1e-3 -9.865 4.561-12.888 0 0 4.511-3.024 12.839-3.024h57.501z"/>
  <path d="m1840.4 5.35s8.328 0 11.005 3.024c0 0 2.627 3.073 2.627 11.401v52.395s0 7.585-2.627 10.608c0 0-2.677 3.024-11.005 3.024h-143.85v433.89s0 10.608-3.42 13.285c0 0-3.421 2.627-14.029 2.627h-59.186s-9.071 0-13.235-3.024c0 0-4.164-3.023-4.164-12.888v-433.89h-140.88s-8.328 0-10.608-3.024c0 0-2.28-3.023-2.28-10.608l-1e-3 -52.395c1e-3 0 1e-3 -8.328 2.281-11.401 0 0 2.28-3.024 10.608-3.024h378.76z"/>
  <path d="m881.1 2.2c147.9 0 267.7 119.8 267.7 267.7 0 147.8-119.8 267.7-267.7 267.7h-590.1c-21.1 0-38.2-17.1-38.2-38.2s17.1-38.2 38.2-38.2h137.5c21 0 38.1-17.1 38.1-38.2s-17.1-38.2-38.1-38.2h-30.601c-21.099 0-38.199-17.1-38.199-38.2s17.1-38.2 38.2-38.2h91.703c21.215-0.059 37.67-17.35 38.197-38.2 0-21.1-17.1-38.2-38.2-38.2h-320.9c-21.1 0-38.2-17.1-38.2-38.2s17.1-38.2 38.2-38.2h236.8c21.214-0.059 37.669-17.35 38.196-38.2 0-21.1-17.1-38.2-38.2-38.2h-53.4c-21.1 0-38.2-17.1-38.2-38.2s17.1-39.2 38.2-39.2l529 0.4zm-42.799 89.2c-82.2 0-148.7 66.6-148.7 148.7v59.5c0 82.2 66.5 148.7 148.7 148.7 82.1 0 148.7-66.5 148.7-148.7v-59.5c0-82.1-66.6-148.7-148.7-148.7zm50.8 140.6c19.8 0 35.9 16.1 35.9 35.9v4.6c0 19.8-16.1 35.9-35.9 35.9h-111.6c-19.8 0-35.9-16.1-35.9-35.9v-4.6c0-19.8 16.1-35.9 35.9-35.9h111.6z"/>
  <path d="m171 461.2c19.9 0 35.9 16 35.9 35.9v4.6c0 19.8-16 35.9-35.9 35.9h-132.1c-19.8 0-35.9-16.1-35.9-35.9v-4.6c0-19.9 16.1-35.9 35.9-35.9h132.1z"/>
  <path d="m2952.9 4.854c1e-3 0 9.815 0 12.492 4.214 0 0 2.627 4.164 2.627 13.235v47.785s0 9.865-2.627 13.285c0 0-2.677 3.42-12.491 3.42h-201.45s-28.8 0-40.548 12.839c0 0-11.699 12.888-11.699 37.078v79.461h228.67s9.864 0 12.541 3.817c0 0 2.627 3.767 2.627 14.326v41.589s0 9.071-2.627 13.186c0 0-2.677 4.163-12.541 4.163h-228.67v110.69s0 24.24 12.492 36.732c0 0 12.491 12.541 39.755 12.541h205.96s10.608 0 13.285 3.767c0 0 2.627 3.767 2.627 14.375v46.844s0 8.328-3.024 12.839c0 0-3.023 4.56-12.888 4.56h-215.83c1e-3 0-40.151 0-65.928-11.351 0 0-25.776-11.352-41.341-30.288 0 0-15.565-18.935-21.612-43.175 0 0-6.098-24.19-6.098-50.71v-258.9s0-26.52 7.188-51.107c0 0 7.237-24.636 23.546-43.572 0 0 16.308-18.886 42.085-30.287 0 0 25.826-11.352 62.161-11.352h211.32z"/>
  <path d="m3219.3 5.35s10.559 0 14.376 2.677c0 0 3.767 2.627 3.767 13.235v498.43s0 10.608-3.767 13.285c0 0-3.817 2.627-14.376 2.627h-57.501s-9.071 0-13.235-3.024c0 0-4.164-3.023-4.164-12.888v-498.43s0-9.865 4.164-12.888c0 0 4.164-3.024 13.235-3.024h57.501z"/>
  <path d="m232.2 2.8c19.8 0 35.8 16.1 35.8 35.9v4.7c0 19.8-16 35.8-35.8 35.8h-147.5c-19.8 0-35.9-16-35.9-35.8v-4.7c0-19.8 16.1-35.9 35.9-35.9h147.5z"/>
  <path d="m278 308.4c19.8 0 35.9 16.1 35.9 35.9v4.6c0 19.8-16.1 35.9-35.9 35.9h-81c-19.8 0-35.9-16.1-35.9-35.9v-4.6c0-19.8 16.1-35.9 35.9-35.9h81z"/>
 </g>
</svg>
